<svg width="130" height="30" fill="none" xmlns="http://www.w3.org/2000/svg"><path d="M0 11.284l11.835.002 7.196.001V4.158L0 11.284z" fill="#FF9D28"/><path d="M19.031 4.158v25.17L28.019.792 19.03 4.158z" fill="#68C5ED"/><path d="M19.03 11.287h-7.196l7.197 18.04v-18.04z" fill="#044D80"/><path d="M0 11.284l13.68 4.631-1.845-4.629L0 11.284z" fill="#E54747"/><path d="M43.596 22.702a3.307 3.307 0 01-.521.391c-.244.157-.561.313-.952.47-.39.156-.87.29-1.433.404-.565.112-1.212.17-1.942.17-1.408 0-2.625-.227-3.65-.679-1.026-.451-1.873-1.082-2.541-1.89-.67-.807-1.16-1.763-1.473-2.867-.313-1.103-.47-2.315-.47-3.636 0-1.32.17-2.542.509-3.662.339-1.121.847-2.09 1.525-2.907a7.006 7.006 0 012.541-1.916c1.017-.46 2.212-.69 3.584-.69.678 0 1.29.06 1.838.182a9.196 9.196 0 011.434.43c.408.165.747.339 1.017.521.269.183.473.335.612.456.156.14.29.305.404.495.113.192.17.4.17.626 0 .348-.131.695-.391 1.043s-.547.669-.86.964a10.491 10.491 0 00-.704-.638 4.768 4.768 0 00-.873-.574 5.795 5.795 0 00-1.095-.417 5.14 5.14 0 00-1.37-.17c-.886 0-1.628.18-2.228.535-.6.356-1.082.82-1.446 1.394a5.903 5.903 0 00-.782 1.968 11.432 11.432 0 000 4.6c.156.748.425 1.41.808 1.982a4.316 4.316 0 001.499 1.382c.616.348 1.385.521 2.306.521.487 0 .934-.06 1.343-.182a5.377 5.377 0 001.902-.99c.235-.191.43-.356.587-.496.104.122.225.27.365.444.14.175.27.358.39.547.122.191.226.382.314.573.087.192.13.365.13.522 0 .226-.043.417-.13.573-.087.156-.226.33-.417.521zm13.433-1.999c0 1.381.201 2.387.603 3.016-.315.122-.607.21-.878.262a4.51 4.51 0 01-.853.078c-.629 0-1.106-.121-1.429-.366-.323-.245-.53-.595-.616-1.05-.385.403-.892.744-1.521 1.023-.63.28-1.399.42-2.307.42-.473 0-.945-.065-1.417-.196a3.724 3.724 0 01-1.285-.64c-.385-.296-.699-.693-.944-1.19-.244-.496-.367-1.102-.367-1.816 0-.89.214-1.613.643-2.17a4.58 4.58 0 011.612-1.32 7.308 7.308 0 012.098-.667c.752-.121 1.443-.2 2.072-.235.21-.018.415-.026.616-.026h.564v-.478c0-.672-.18-1.15-.537-1.432-.359-.283-.94-.425-1.744-.425-.752 0-1.421.123-2.006.368-.586.245-1.159.524-1.718.839a3.858 3.858 0 01-.59-.983c-.149-.358-.223-.625-.223-.8 0-.244.135-.48.406-.708.271-.227.643-.433 1.115-.617a9.088 9.088 0 011.626-.445 10.61 10.61 0 011.94-.17c.944 0 1.744.096 2.4.288.655.193 1.188.49 1.6.891.41.403.703.905.878 1.508.174.604.262 1.308.262 2.111v4.93zm-3.356-3.042h-.368c-.122 0-.245.01-.367.027-.437.035-.87.088-1.299.157-.428.07-.809.192-1.14.367a2.4 2.4 0 00-.813.682c-.21.28-.315.638-.315 1.075 0 .49.14.905.42 1.246.28.34.751.511 1.416.511.332 0 .647-.043.944-.131.297-.087.56-.201.787-.34.226-.14.406-.293.537-.46.132-.165.197-.318.197-.458V17.66zm9.886-5.166c.279-.332.714-.668 1.307-1.01.592-.34 1.341-.51 2.248-.51.645 0 1.26.109 1.843.327a4.04 4.04 0 011.555 1.062c.454.49.815 1.137 1.086 1.94.27.805.404 1.793.404 2.964 0 1.363-.156 2.487-.47 3.37-.314.883-.72 1.583-1.215 2.098-.497.515-1.05.878-1.66 1.088-.61.21-1.22.314-1.83.314-.506 0-.946-.057-1.32-.17a5.286 5.286 0 01-.954-.38 2.52 2.52 0 01-.863-.71v6.448h-3.566V11.34a6.396 6.396 0 01.687-.092c.14-.009.308-.013.501-.013.582 0 1.075.096 1.48.288.405.194.661.517.767.971zm4.72 4.851c0-.524-.044-1.013-.13-1.468a3.576 3.576 0 00-.43-1.18c-.2-.332-.47-.59-.81-.774-.338-.183-.75-.275-1.237-.275-.73 0-1.24.14-1.526.42-.287.28-.43.586-.43.918v5.56c.139.14.386.305.743.497.356.193.769.289 1.239.289.886 0 1.538-.35 1.955-1.05.418-.699.626-1.678.626-2.937zm6.476 4.511a4.552 4.552 0 01-.236-1.102 12.604 12.604 0 01-.052-1.153V7.434c.122-.018.253-.035.393-.053.122-.017.254-.03.394-.039.14-.009.279-.013.419-.013.28 0 .56.026.84.079.278.052.532.157.76.315.227.157.41.371.55.642.14.271.21.625.21 1.062v1.862h3.671v2.649h-3.67v5.592c0 1.22.497 1.829 1.494 1.829.245 0 .476-.04.695-.118.218-.079.415-.166.59-.262s.328-.197.459-.301c.131-.105.223-.184.275-.236.262.385.463.718.603.998.14.282.21.546.21.793 0 .23-.092.455-.276.675-.184.22-.442.423-.773.609a4.805 4.805 0 01-1.207.45 6.534 6.534 0 01-1.547.172c-1.084 0-1.928-.21-2.531-.63a3.351 3.351 0 01-1.27-1.652zm15.983-.34a4.17 4.17 0 001.157-.145 4.62 4.62 0 00.895-.354c.263-.14.491-.293.684-.459.193-.166.368-.319.527-.458.21.261.429.599.657 1.01.228.41.342.747.342 1.01 0 .384-.218.733-.655 1.048-.367.28-.888.52-1.56.722-.674.2-1.465.3-2.374.3a9.46 9.46 0 01-2.426-.314 5.356 5.356 0 01-2.124-1.101c-.62-.524-1.124-1.228-1.508-2.111-.385-.883-.577-1.997-.577-3.344 0-1.102.17-2.05.511-2.845.341-.795.796-1.455 1.364-1.98a5.372 5.372 0 011.928-1.153 6.778 6.778 0 012.203-.368c.978 0 1.809.154 2.49.46.682.306 1.237.716 1.666 1.232.428.516.738 1.106.93 1.77.193.665.29 1.364.29 2.098v.367c0 .14-.006.288-.014.446l-.026.459c-.01.149-.022.266-.04.354h-7.736c.07.96.368 1.76.895 2.399.526.638 1.36.956 2.5.956zm1.195-5.324c0-.84-.163-1.52-.489-2.046-.325-.524-.91-.787-1.753-.787-.721 0-1.297.25-1.728.748-.43.498-.646 1.193-.646 2.084h4.616zm9.431-3.631c.105-.156.245-.33.42-.521.175-.19.389-.364.643-.52.253-.156.533-.286.839-.39.305-.105.634-.156.983-.156.21 0 .433.017.669.052.236.035.454.1.655.195s.363.225.485.39a.99.99 0 01.184.61c0 .382-.096.82-.288 1.315-.193.495-.385.917-.577 1.266a3.912 3.912 0 00-.892-.564 2.585 2.585 0 00-1.049-.196c-.542 0-.996.158-1.363.473-.367.315-.551.693-.551 1.131v8.49h-3.566V11.342a6.28 6.28 0 01.682-.092 8.16 8.16 0 01.498-.013c.56 0 1.044.108 1.455.325.41.216.669.55.773 1zm10.14 0c.105-.156.245-.33.42-.521.175-.19.389-.364.643-.52.253-.156.533-.286.839-.39.305-.105.633-.156.983-.156.209 0 .432.017.669.052.236.035.454.1.655.195s.363.225.485.39a.99.99 0 01.184.61c0 .382-.097.82-.288 1.315-.193.495-.386.917-.578 1.266a3.886 3.886 0 00-.891-.564 2.585 2.585 0 00-1.049-.196c-.542 0-.997.158-1.363.473-.368.315-.551.693-.551 1.131v8.49h-3.566V11.342a6.242 6.242 0 01.682-.092c.139-.009.305-.013.497-.013.56 0 1.045.108 1.456.325.41.216.668.55.773 1zm17.02 8.141c0 1.381.201 2.387.603 3.016-.315.122-.608.21-.878.262a4.524 4.524 0 01-.853.078c-.629 0-1.106-.121-1.429-.366-.324-.245-.529-.595-.616-1.05-.385.403-.892.744-1.521 1.023-.63.28-1.399.42-2.308.42-.472 0-.943-.065-1.416-.196a3.721 3.721 0 01-1.285-.64c-.385-.296-.699-.693-.944-1.19-.244-.496-.367-1.102-.367-1.816 0-.89.214-1.613.643-2.17a4.574 4.574 0 011.612-1.32 7.312 7.312 0 012.098-.667c.752-.121 1.443-.2 2.072-.235.21-.018.415-.026.617-.026h.563v-.478c0-.672-.179-1.15-.537-1.432-.359-.283-.94-.425-1.744-.425-.752 0-1.42.123-2.006.368a16.34 16.34 0 00-1.717.839 3.872 3.872 0 01-.591-.983c-.148-.358-.223-.625-.223-.8 0-.244.135-.48.407-.708.27-.227.642-.433 1.114-.617a9.086 9.086 0 011.626-.445c.612-.114 1.259-.17 1.941-.17.943 0 1.743.096 2.399.288.655.193 1.189.49 1.6.891.41.403.703.905.878 1.508.175.604.262 1.308.262 2.111v4.93zm-3.357-3.042h-.367c-.123 0-.245.01-.367.027-.438.035-.871.088-1.299.157-.428.07-.809.192-1.14.367a2.4 2.4 0 00-.813.682c-.21.28-.315.638-.315 1.075 0 .49.14.905.42 1.246.279.34.751.511 1.416.511.332 0 .646-.043.944-.131.297-.087.559-.201.787-.34.226-.14.406-.293.537-.46.131-.165.197-.318.197-.458V17.66z" fill="#044D80"/></svg>